<?xml version="1.0" encoding="UTF-8" standalone="no"?>
<!-- Created with Inkscape (http://www.inkscape.org/) -->

<svg
   width="77pt"
   height="85pt"
   viewBox="0 0 27.163892 29.986112"
   version="1.1"
   id="svg1"
   xml:space="preserve"
   inkscape:version="1.4.2 (ebf0e940d0, 2025-05-08)"
   sodipodi:docname="logo.svg"
   xmlns:inkscape="http://www.inkscape.org/namespaces/inkscape"
   xmlns:sodipodi="http://sodipodi.sourceforge.net/DTD/sodipodi-0.dtd"
   xmlns="http://www.w3.org/2000/svg"
   xmlns:svg="http://www.w3.org/2000/svg"><sodipodi:namedview
     id="namedview1"
     pagecolor="#ffffff"
     bordercolor="#000000"
     borderopacity="0.25"
     inkscape:showpageshadow="2"
     inkscape:pageopacity="0.0"
     inkscape:pagecheckerboard="0"
     inkscape:deskcolor="#d1d1d1"
     inkscape:document-units="mm"
     inkscape:zoom="2.5024349"
     inkscape:cx="91.11126"
     inkscape:cy="89.313012"
     inkscape:window-width="1536"
     inkscape:window-height="798"
     inkscape:window-x="0"
     inkscape:window-y="0"
     inkscape:window-maximized="1"
     inkscape:current-layer="layer1" /><defs
     id="defs1"><rect
       x="105.76041"
       y="209.03233"
       width="55.576057"
       height="76.728142"
       id="rect2" /></defs><g
     inkscape:label="Layer 1"
     inkscape:groupmode="layer"
     id="layer1"><text
       xml:space="preserve"
       transform="scale(0.26458333)"
       id="text2"
       style="font-size:96px;text-align:start;writing-mode:lr-tb;direction:ltr;white-space:pre;shape-inside:url(#rect2);display:inline;fill:#e41010;fill-opacity:1;stroke:#000000;stroke-width:1.00157;stroke-dasharray:none;stroke-opacity:1" /><g
       id="g3"
       transform="translate(-29.112192,-37.364942)"><path
         style="fill:#e3e3e3;fill-opacity:1;stroke:#6b6b6b;stroke-width:0.265;stroke-dasharray:none;stroke-opacity:1"
         d="m 53.470153,43.238592 c 2.680803,7.964549 -5.228252,7.726825 -5.445888,7.837748 -0.01392,-0.11006 2.989237,0.22596 4.083077,-1.148589 3.10445,6.081389 -6.119576,6.365422 -6.435647,6.154047 0,0 2.558913,0.983913 5.464529,-1.271951 1.685252,6.030014 -7.264985,5.790386 -7.522872,6.004823 0.251569,0.405716 7.266102,-1.21134 5.957311,-1.673266 2.956095,4.946487 -15.943322,13.701085 -18.627712,2.401686 -1.247076,-4.977992 -1.530772,-9.303108 1.896179,-13.116195 4.63835,-5.335735 18.591612,-8.895165 22.035453,-10.256514 1.106423,6.495384 -6.158828,7.339714 -6.124672,7.744901 2.747425,-0.982015 3.900114,-1.309216 4.720242,-2.67669 z"
         id="path1"
         sodipodi:nodetypes="cccccccccccc" /><text
         xml:space="preserve"
         style="font-size:19.7556px;text-align:start;writing-mode:lr-tb;direction:ltr;text-anchor:start;white-space:pre;inline-size:0;fill:#e41010;fill-opacity:1;stroke:#000000;stroke-width:0.264999;stroke-dasharray:none;stroke-opacity:1"
         x="30.945288"
         y="61.890575"
         id="text3"
         transform="rotate(-15.753175,42.745763,41.398816)"><tspan
           id="tspan3"
           style="font-size:19.7556px;stroke-width:0.265"
           x="30.945288"
           y="61.890575">P</tspan></text></g></g></svg>
